# xmcd
#
# Track frame offsets:
#  150
#  14521
#  32876
#  52920
#  68505
#  88595
#  112006
#  126645
#  140599
#  157443
#
# Disc length: 2386 seconds
#
# Revision: 0
# Processed by: cddbd v1.5.2PL0 Copyright (c) Steve Scherf et al.
# Submitted via: Collectorz.com_Music_Collector 6.11
#
DISCID=9209500a
DTITLE=The Reverends - When You're Done
DYEAR=2009
DGENRE=Country
TTITLE0=You Gotta Go
TTITLE1=Jim, Jack and Bud
TTITLE2=Walking Backwards
TTITLE3=That Secret Moonshine Still
TTITLE4=My Great Escape
TTITLE5=Demolition
TTITLE6=Plain To See
TTITLE7=Ride On
TTITLE8=Quiet Town
TTITLE9=When You're Done
EXTD=
EXTT0=
EXTT1=
EXTT2=
EXTT3=
EXTT4=
EXTT5=
EXTT6=
EXTT7=
EXTT8=
EXTT9=
PLAYORDER=
